## USER
Make a note of the following data and stand by for questions. Ok?

Video file: DJI_0414.MP4
Color: Normal
Format: H.265
Bitrate: CBR
Camera: Mavic 3 Wide angle, Color: 8 Bit, Format: H.265, Bitrate: CBR
json:
  "streams": [
    {
      "index": 0,
      "codec_name": "hevc",
      "codec_long_name": "H.265 / HEVC (High Efficiency Video Coding)",
      "profile": "Main",
      "codec_type": "video",
      "codec_tag_string": "hvc1",
      "codec_tag": "0x31637668",
      "width": 5120,
      "height": 2700,
      "coded_width": 5120,
      "coded_height": 2704,
      "closed_captions": 0,
      "film_grain": 0,
      "has_b_frames": 1,
      "pix_fmt": "yuv420p",
      "level": 180,
      "color_range": "tv",
      "color_space": "bt709",
      "color_transfer": "bt709",
      "color_primaries": "bt709",
      "chroma_location": "left",
      "refs": 1,
      "id": "0x1",
      "r_frame_rate": "48000/1001",
      "avg_frame_rate": "48000/1001",
      "time_base": "1/48000",
      "start_pts": 0,
      "start_time": "0.000000",
      "duration_ts": 291291,
      "duration": "6.068562",
      "bit_rate": "164793814",
      "nb_frames": "291",
      "extradata_size": 121,
      "tags": {
        "creation_time": "2023-02-19T10:10:42.000000Z",
        "language": "und",
        "handler_name": "VideoHandler",
        "vendor_id": "[0][0][0][0]"
      }
    }
  ]

Video file: DJI_0415.MP4
Color: D-Log
Format: H.265
Bitrate: CBR
Camera: Mavic 3 Wide angle, Color: 10 Bit, Format: H.265, Bitrate: CBR
json:
"streams": [
    {
      "index": 0,
      "codec_name": "hevc",
      "codec_long_name": "H.265 / HEVC (High Efficiency Video Coding)",
      "profile": "Main 10",
      "codec_type": "video",
      "codec_tag_string": "hvc1",
      "codec_tag": "0x31637668",
      "width": 5120,
      "height": 2700,
      "coded_width": 5120,
      "coded_height": 2704,
      "closed_captions": 0,
      "film_grain": 0,
      "has_b_frames": 1,
      "pix_fmt": "yuv420p10le",
      "level": 180,
      "color_range": "tv",
      "color_space": "bt709",
      "color_transfer": "bt709",
      "color_primaries": "bt709",
      "chroma_location": "left",
      "refs": 1,
      "id": "0x1",
      "r_frame_rate": "48000/1001",
      "avg_frame_rate": "48000/1001",
      "time_base": "1/48000",
      "start_pts": 0,
      "start_time": "0.000000",
      "duration_ts": 272272,
      "duration": "5.672333",
      "bit_rate": "165909664",
      "nb_frames": "272",
      "extradata_size": 121,
      "tags": {
        "creation_time": "2023-02-19T10:11:50.000000Z",
        "language": "und",
        "handler_name": "VideoHandler",
        "vendor_id": "[0][0][0][0]"
      }
    }
  ]
  
Video file: DJI_0416.MP4
Color: HLG
Format: H.265
Bitrate: CBR
Camera: Mavic 3 Wide angle, Color: 10 Bit HDR, Format: H.265, Bitrate: CBR
json:
"streams": [
    {
      "index": 0,
      "codec_name": "hevc",
      "codec_long_name": "H.265 / HEVC (High Efficiency Video Coding)",
      "profile": "Main 10",
      "codec_type": "video",
      "codec_tag_string": "hvc1",
      "codec_tag": "0x31637668",
      "width": 5120,
      "height": 2700,
      "coded_width": 5120,
      "coded_height": 2704,
      "closed_captions": 0,
      "film_grain": 0,
      "has_b_frames": 1,
      "pix_fmt": "yuv420p10le",
      "level": 180,
      "color_range": "tv",
      "color_space": "bt2020nc",
      "color_transfer": "arib-std-b67",
      "color_primaries": "bt2020",
      "chroma_location": "left",
      "refs": 1,
      "id": "0x1",
      "r_frame_rate": "48000/1001",
      "avg_frame_rate": "48000/1001",
      "time_base": "1/48000",
      "start_pts": 0,
      "start_time": "0.000000",
      "duration_ts": 429429,
      "duration": "8.946438",
      "bit_rate": "164721058",
      "nb_frames": "429",
      "extradata_size": 121,
      "tags": {
        "creation_time": "2023-02-19T10:12:28.000000Z",
        "language": "und",
        "handler_name": "VideoHandler",
        "vendor_id": "[0][0][0][0]"
      }
    }
  ]

Video file: DJI_0417.MP4
Color: Normal
Format: H.264
Bitrate: CBR
Camera: Mavic 3 Telephoto, Color: 8 Bit, Format: H.264, Bitrate: CBR
json:
"streams": [
    {
      "index": 0,
      "codec_name": "h264",
      "codec_long_name": "H.264 / AVC / MPEG-4 AVC / MPEG-4 part 10",
      "profile": "High",
      "codec_type": "video",
      "codec_tag_string": "avc1",
      "codec_tag": "0x31637661",
      "width": 3840,
      "height": 2160,
      "coded_width": 3840,
      "coded_height": 2160,
      "closed_captions": 0,
      "film_grain": 0,
      "has_b_frames": 2,
      "pix_fmt": "yuv420p",
      "level": 51,
      "color_range": "tv",
      "color_space": "bt709",
      "color_transfer": "bt709",
      "color_primaries": "bt709",
      "chroma_location": "left",
      "field_order": "progressive",
      "refs": 1,
      "is_avc": "true",
      "nal_length_size": "4",
      "id": "0x1",
      "r_frame_rate": "50/1",
      "avg_frame_rate": "50/1",
      "time_base": "1/5000",
      "start_pts": 0,
      "start_time": "0.000000",
      "duration_ts": 27200,
      "duration": "5.440000",
      "bit_rate": "161183510",
      "bits_per_raw_sample": "8",
      "nb_frames": "272",
      "extradata_size": 45,
      "tags": {
        "creation_time": "2023-02-19T10:13:50.000000Z",
        "language": "und",
        "handler_name": "VideoHandler",
        "vendor_id": "[0][0][0][0]"
      }
    }
  ]
Video file: DJI_0418.MP4
Color: Normal
Format: H.265
Bitrate: CBR
Camera: Mavic 3 Telephoto, Color: 8 Bit, Format: H.265, Bitrate: CBR
json:
"streams": [
    {
      "index": 0,
      "codec_name": "hevc",
      "codec_long_name": "H.265 / HEVC (High Efficiency Video Coding)",
      "profile": "Main",
      "codec_type": "video",
      "codec_tag_string": "hvc1",
      "codec_tag": "0x31637668",
      "width": 3840,
      "height": 2160,
      "coded_width": 3840,
      "coded_height": 2160,
      "closed_captions": 0,
      "film_grain": 0,
      "has_b_frames": 1,
      "pix_fmt": "yuv420p",
      "level": 180,
      "color_range": "tv",
      "color_space": "bt709",
      "color_transfer": "bt709",
      "color_primaries": "bt709",
      "chroma_location": "left",
      "refs": 1,
      "id": "0x1",
      "r_frame_rate": "50/1",
      "avg_frame_rate": "50/1",
      "time_base": "1/5000",
      "start_pts": 0,
      "start_time": "0.000000",
      "duration_ts": 27200,
      "duration": "5.440000",
      "bit_rate": "121125886",
      "nb_frames": "272",
      "extradata_size": 120,
      "tags": {
        "creation_time": "2023-02-19T10:14:44.000000Z",
        "language": "und",
        "handler_name": "VideoHandler",
        "vendor_id": "[0][0][0][0]"
      }
    }
  ]

## ASSISTANT
Got it, I'm ready for any questions you might have about this data.

## USER
What is the difference in color between DJI_0415.MP4 and DJI_0416.MP4?

## ASSISTANT
The difference in color between DJI_0415.MP4 and DJI_0416.MP4 is that DJI_0415.MP4 uses the D-Log color profile, while DJI_0416.MP4 uses the HLG (Hybrid Log-Gamma) color profile. HLG is a high dynamic range (HDR) format, which provides a wider range of color and brightness information than standard dynamic range (SDR) formats like D-Log. Therefore, the footage in DJI_0416.MP4 may appear more vivid and detailed than the footage in DJI_0415.MP4, but this also depends on the playback device and its capabilities.

## USER
What is the pix_fmt of DJI_0415.MP4?

## ASSISTANT
To determine the `pix_fmt` of a video, you can use a video analysis tool like FFmpeg. Here